<svg id="Layer_16" viewBox="0 0 512 512" xmlns="http://www.w3.org/2000/svg" xmlns:xlink="http://www.w3.org/1999/xlink" data-name="Layer 16"><linearGradient id="linear-gradient" gradientUnits="userSpaceOnUse" x1="0" x2="512" y1="256" y2="256"><stop offset="0" stop-color="#0caa0c"/><stop offset=".6" stop-color="#4bd14b"/><stop offset="1" stop-color="#60e260"/></linearGradient><path d="m421.52 178.95c-4.16-47.04-41.43-84.31-88.47-88.47-28.27-2.5-67.06-4.31-120.13-4.31s-91.87 1.81-120.13 4.31c-47.04 4.16-84.31 41.43-88.47 88.47-2.51 28.27-4.32 67.06-4.32 120.14s1.81 91.87 4.31 120.13c4.16 47.04 41.43 84.31 88.47 88.47 28.27 2.5 67.06 4.31 120.13 4.31s91.87-1.81 120.13-4.31c47.04-4.16 84.31-41.43 88.47-88.47 2.5-28.27 4.31-67.06 4.31-120.13s-1.81-91.87-4.31-120.13zm-369.4 4.23c2.11-23.9 20.99-42.77 44.89-44.89 30.93-2.73 69.92-4.12 115.91-4.12s84.98 1.39 115.91 4.12c23.9 2.11 42.77 20.99 44.89 44.89 2.73 30.93 4.12 69.92 4.12 115.91s-1.34 83.66-3.99 114.33c-15.16-21.04-34.01-44.46-52.73-64.58-7.16-7.65-17.8-11-28.37-11.05-10.57.04-21.21 3.4-28.37 11.05-2.91 3.12-5.82 6.32-8.71 9.59-11.05 12.43-30.61 12.04-41.05-.91-12.27-15.23-25.26-30.36-38.2-44.27-9.18-9.8-22.82-14.1-36.36-14.16-13.55.06-27.18 4.35-36.36 14.16-18.67 20.06-37.45 42.69-54.02 64.46-1.1-23.23-1.66-49.52-1.66-78.61 0-45.98 1.39-84.98 4.12-115.91zm210.29 51.08c-18.28 0-33.1 14.82-33.1 33.1s14.82 33.1 33.1 33.1 33.1-14.82 33.1-33.1-14.82-33.1-33.1-33.1zm245.28-141.48c-4.16-47.04-41.43-84.31-88.47-88.47-28.27-2.5-67.06-4.31-120.13-4.31s-91.87 1.81-120.13 4.31c-33.71 2.98-62.4 22.97-77.48 51.36 31.15-2.32 68.56-3.49 111.44-3.49 48.38 0 89.81 1.49 123.13 4.44 63.54 5.62 113.73 55.81 119.35 119.35 2.94 33.32 4.44 74.74 4.44 123.13 0 42.89-1.18 80.29-3.49 111.44 28.4-15.09 48.38-43.78 51.36-77.48 2.5-28.27 4.31-67.06 4.31-120.13s-1.81-91.87-4.31-120.13z" fill="url(#linear-gradient)"/></svg>